<svg id="svg8" height="512" viewBox="0 0 16.933333 16.933334" width="512" xmlns="http://www.w3.org/2000/svg" xmlns:svg="http://www.w3.org/2000/svg"><g id="layer1"><path id="path11459" d="m1.32229 5.820676c-.1617902.5715661-.55672901 1.0163757-1.05776 1.191328.50125723.174302.8966712.6186542 1.05901 1.190078.1617882-.5715634.5567228-1.0163724 1.05775-1.191328-.5012534-.1743052-.8966632-.6186569-1.059-1.190078z" fill="#e4eff8"/><path id="path11461" d="m1.454486 13.758249c-.1820093.698574-.62630441 1.242225-1.18995 1.456053.56389767.213035 1.0087246.756127 1.19135 1.454525.1820093-.698574.6263044-1.242225 1.18995-1.456053-.5638977-.213035-1.0087246-.756127-1.19135-1.454525z" fill="#ffca28"/><path id="path11463" d="m15.477449 13.758249c-.182009.698574-.626304 1.242225-1.18995 1.456053.563898.213035 1.008725.756127 1.19135 1.454525.182009-.698574.626304-1.242225 1.18995-1.456053-.563898-.213035-1.008725-.756127-1.19135-1.454525z" fill="#ffca28"/><path id="path11471" d="m15.985071 14.7283c-.247125.498138-.609323.833603-.942578 1.052649.199107.249306.348497.553395.436149.887801.182113-.698495.626463-1.242017 1.190108-1.455725-.253728-.09689-.487174-.262398-.683679-.484725z" fill="#ecb200"/><path id="path11465" d="m15.609805 5.820676c-.16179.5715661-.556729 1.0163757-1.05776 1.191328.501257.174302.896671.6186542 1.05901 1.190078.161788-.5715634.556723-1.0163724 1.05775-1.191328-.501253-.1743052-.896663-.6186569-1.059-1.190078z" fill="#e4eff8"/><path id="path11467" d="m1.190082.264512c-.1415681.50806005-.48714408.9034473-.925552 1.058961.43860579.1549353.7845976.5499158.926646 1.057849.1415665-.5080572.4871387-.9034436.925543-1.05896-.4386026-.1549385-.7845906-.54991886-.926637-1.05785z" fill="#ffca28"/><path id="path11469" d="m15.742166.264512c-.141568.50806005-.487144.9034473-.925552 1.058961.438606.1549353.784598.5499158.926646 1.057849.141567-.5080572.487139-.9034436.925543-1.05896-.438603-.1549385-.784591-.54991886-.926637-1.05785z" fill="#ffca28"/><path id="path11457" d="m9.260417 15.610416v.529166c0 .293159-.236007.529167-.529166.529167h-.529167c-.293158 0-.529167-.236008-.529167-.529167v-.529166z" fill="#c4dcf0"/><path id="path11450" d="m10.054167 13.493776v1.587473c0 .293159-.236008.529167-.529166.529167h-2.116667c-.293158 0-.529167-.236008-.529167-.529167v-1.587473z" fill="#e4eff8"/><path id="path11452" d="m9.8231729 13.49375c-.2431601 1.258931-1.8141688 1.670829-2.8969809 1.804541.082703.183984.2666651.312125.4821412.312125h2.1166667c.293158 0 .5291671-.236007.5291671-.529166v-1.5875z" fill="#c4dcf0"/><path id="path11443" d="m10.167596 13.326465c0-1.195708 2.26789-2.120467 2.26789-4.626261 0-2.174722-1.587568-3.937681-3.968818-3.937681-2.381252 0-3.968819 1.762959-3.968819 3.937681 0 2.505794 2.267889 3.430553 2.267889 4.626261z" fill="#ffca28" paint-order="stroke fill markers"/><path id="path11445" d="m10.884607 5.5221436c1.059281 5.8065484-2.2117843 7.0070704-4.3015465 7.2000774.1116642.199619.1829348.39786.1829348.604097h3.4013427c0-1.195708 2.268079-2.12028 2.268079-4.6260741 0-1.306884-.576454-2.461855-1.55081-3.1781003z" fill="#ecb200"/><path id="path11476" d="m1.9815328 14.7283c-.247125.498138-.6093224.833603-.9425781 1.052649.1991074.249306.3484968.553395.436149.887801.1821134-.698495.6264629-1.242017 1.1901082-1.455725-.253728-.096886-.4871743-.262398-.6836791-.484725z" fill="#ecb200"/><path id="path12033" d="m1.1907335.0000035c-.118984.00199999-.22317494.07979999-.25475994.19274991-.121612.43485982-.411442.75655966-.758078.87901959-.237194.0823-.237194.4179598 0 .5002298.34651.1229198.635839.4455698.757044.8805596.03552.1273799.14560794.1916499.25372694.1932699v.0005212c.000706 0 .0014-.0005027.0021-.0005212.000706.00001.0014.0005212.0021.0005212v-.0005212c.108122-.002.218204-.0659.253728-.1932699.121206-.4349898.410535-.7576398.757045-.8805596.237194-.0823.237194-.4179599 0-.5002298-.34665-.12245993-.636475-.44415977-.758086-.87901959-.03159-.11296996-.135777-.19087992-.25476-.19274991zm14.5517995.00052c-.118984.00199999-.223175.07979999-.25476.19274991-.121612.43485984-.411442.75655968-.758078.87901959-.237195.0823-.237195.4179598 0 .5002198.34651.1229198.63584.4455799.757045.8805697.03552.1273699.145607.1916497.253726.1932697v.0005291c.000714 0 .0014-.0005027.0021-.0005291.000714.00001.0014.0005291.0021.0005291v-.0005291c.108123-.002.218203-.0659.253727-.1932697.121206-.4349898.410535-.7576499.757045-.8805697.237194-.0823.237194-.4179599 0-.5002198-.346837-.12245991-.636533-.44415975-.758145-.87901959-.03158-.11296996-.135777-.19088992-.25476-.19274991zm-14.5517995.90019959c.101263.15897991.252666.31872971.384465.42115971-.201926.16544-.30401.3018499-.384465.4237498-.08046-.1218999-.18254-.2583098-.38446494-.4237498.131799-.10243.28320094-.2621798.38446494-.42115971zm14.9362645.42168091c-.201925.16544-.304011.3018399-.384465.4237498-.08046-.1219111-.18254-.258311-.384466-.423751.1318-.10243.283202-.2621798.384466-.42115907.101264.15898057.252666.31873027.384465.42116027zm-8.7186655 14.818207c0 .43515.350838.792719.793218.792719h.53019c.442379 0 .793217-.357569.793217-.792719l.000265-.26561c.442631 0 .7934825-.35757.7934825-.79272v-.26562c.352855 0 .352855-.52916 0-.52916v-.529169c.306024 0 .345713-.39714.120922-.50281.01274-.12226.05994-.25085.134355-.38913.746405.44507 1.43913.75895 2.023093.89297.454053.10421.839627.10528 1.154429-.0331.337455-.14829.525766-.4343.587032-.78289.115528-.65734-.197486-1.624749-.885199-2.802419-.175861-.3116096-.641894-.0399-.457328.26665.659135 1.12873.903551 1.972359.820605 2.444299-.03212.18272-.1181.32091-.278013.39119-.159912.0703-.433561.0901-.821639.001-.517722-.11883-1.147903-.40139-1.840678-.81132.182824-.23035.397362-.47721.629406-.761189.579857-.70966 1.193185-1.61702 1.193185-2.9703692 0-.4809196-.0763-.9405593-.213936-1.3709695.618286-.7775734 1.131898-1.5284832 1.518741-2.2158829.621593-1.1045295.93811-2.0754993.766347-2.7388489-.09145-.3530398-.326407-.6144998-.683692-.7249897-.166584-.0515-.347424-.0694-.542074-.0599-.194651.009-.402981.0467-.624756.1059398-.8871.23711-2.010844.8476198-3.2870745 1.7952392-.28357.2099101.03165.6352098.31522.4252902 1.2432725-.9231395 2.3364395-1.5045596 3.1087935-1.7109996.386177-.1032299.686774-.1076499.872798-.0501.186025.0575.281238.1739101.328656.3508801.117106.4370497-.1077 1.2677895-.715704 2.3481788-.330001.5863899-.765666 1.2323596-1.284651 1.9053093-.658871-1.3429695-2.015504-2.2615189-3.7903825-2.261879-1.775277.0003704-3.131694.9189696-3.790409 2.2623991-.519379-.6733799-.955486-1.3195996-1.285679-1.9063493-.608014-1.0804195-.832812-1.9111093-.715705-2.3481689.04742-.1769801.142629-.29336.328656-.35089.186028-.0575.486616-.0531.872798.0501.772366.20646 1.865502.7878397 3.108793 1.7110093.283574.2099199.598794-.2153798.31522-.4252999-1.27625-.9476394-2.399959-1.5581193-3.287073-1.7952393-.221779-.0593-.430102-.0965-.624756-.1059498-.194654-.00901-.375488.00799-.542075.05989-.35729.1104799-.592243.3719399-.683666.7250197-.171765.6633696.144745 1.6342793.766347 2.7388488.38704.6877598.901069 1.4389095 1.519774 2.2169195-.137442.4301495-.213936.8898794-.213937 1.3704594.000001 1.3533488.613327 2.2607088 1.193186 2.9703588.231939.283849.446625.530409.629407.760679-.693148.41022-1.323757.69295-1.841712.81183-.388072.0891-.66173.0692-.82164-.001-.159913-.0703-.2459-.20847-.278013-.39119-.08294-.471936.161482-1.315615.820605-2.444305.184564-.30652-.281469-.5782498-.457327-.26665-.687703 1.17763-1.000727 2.145099-.8852 2.802419.06126.34858.249582.6346.587033.78289.314797.13834.700383.13728 1.154429.0331.584305-.1341 1.277735-.448 2.024643-.89348.07587.13854.121006.26683.133839.38912-.226009.1049-.186628.50333.119887.50333v.529169c-.352853 0-.352853.52916 0 .52916v.26562c0 .43515.350838.79272.793482.79272zm1.0583-13.2296789c-.13232 0-.264578.0882-.264578.2645897v.52916c-.000001.3528597.529156.3528597.529156 0v-.52916c0-.1764298-.132258-.2645897-.264578-.2645897zm-4.115947 2.0789492.37413.37465c.249504.2495098.623634-.1251503.37413-.37465l-.37413-.3741398c-.06238-.0624-.132676-.0861-.198951-.082185-.198823.011716-.362307.269195-.175179.4563248zm7.8577655-.37411-.374647.3741402c-.249505.2495098.124626.6241598.37413.3746598l.374647-.3746598c.187127-.18713.02313-.4446101-.175697-.45632-.06628-.00402-.136057.01978-.198433.08218zm-.320929 2.6106592c-.317685.3897799-.659209.7857096-1.027307 1.1833894-.774564.8368197-1.5903285 1.6067791-2.3946445 2.2809991-.803613-.67442-1.618891-1.4456693-2.392543-2.2815092-.367651-.3972097-.708908-.7925094-1.026274-1.1818393.530855-1.3001495 1.772581-2.1989693 3.420384-2.1993495 1.6473615.0003705 2.8892885.8987298 3.4203845 2.1983095zm-10.5676005-1.6696593c-.11833.0005292-.222396.0793-.254243.19327-.14086194.4975897-.48028294.8701595-.89036694 1.0133695-.233476.0839-.233476.4142497 0 .4981599.410264.1426599.751101.5164299.89243394 1.0138891.0744.2534801.433606.2534801.50797 0 .140862-.4975992.480262-.8706892.890367-1.0138891.237176-.0823.237176-.4179599 0-.50023-.410266-.1426498-.749037-.5138497-.890367-1.0112994-.032-.11468-.13672-.19372-.255794-.19327zm14.2882555 0c-.118331.0005292-.222397.0793-.254244.19327-.140862.4975897-.480283.8701595-.890367 1.0133695-.233477.0839-.233477.4142497 0 .4981599.410264.1426599.751102.5164299.892434 1.0138891.0744.2534801.433608.2534801.50797 0 .140863-.4975992.480264-.8706892.890368-1.0138891.237176-.0823.237176-.4179599 0-.50023-.410266-.1426498-.749037-.5138497-.890368-1.0112994-.032-.11468-.136719-.19372-.255793-.19327zm-7.1415445.0005028c-.649952 0-1.284992.1979699-1.817941.5699897-.299604.2012413.01236.6477469.304368.4356397.444167-.3100597.971894-.4764596 1.513573-.4764596.360067.00736.360067-.5365348 0-.5291698zm-7.146711.9089966c.162462.2508801.272303.3643101.498668.5451901-.194557.1578796-.337322.2891097-.496601.5456997-.174219-.2836598-.36551294-.4426796-.50073494-.5451901.18466794-.1398897.35990694-.3086296.49866794-.5456997zm14.2882555 0c.162461.2508801.272302.3643101.498668.5451901-.194558.1578796-.337323.2891097-.496602.5456997-.174218-.2836598-.365514-.4426796-.500734-.5451901.184668-.1398897.359907-.3086296.498668-.5456997zm-9.5227475.4134099c-.146128-.0000024-.264587.1184616-.264579.26459-.000002.1461243.118455.264582.264579.2645799.146123.0000023.26458-.1184556.264578-.2645799.000008-.1461284-.118451-.2645924-.264578-.26459zm6.0863355 1.8215994c0 1.1575397-.522351 1.9584691-1.076399 2.6365291-.233412.28566-.470245.54807-.675399.811319-.4935775-.318929-1.0119255-.694939-1.5399295-1.117759.80857-.68351 1.6157445-1.4514393 2.3682865-2.2644592.289977-.31329.56546-.6252496.825772-.9348296.06185.2788198.09767.5684597.09767.8691997zm-7.3115605-.8686702c.260046.3092196.535103.6213896.82474.9343094.751829.8122597 1.558608 1.5807789 2.366735 2.2644589-.526969.42155-1.045073.79879-1.537861 1.11724-.205054-.26306-.441639-.525349-.674881-.810799-.554047-.678061-1.076399-1.4789904-1.076399-2.6365298 0-.3005601.03589-.5900098.09767-.8686795zm-1.949713.6345796c-.352853 0-.352853.5286496 0 .5286496h.529156c.352852 0 .352852-.5286496 0-.5286496zm10.5826105 0c-.352853 0-.352853.5286496 0 .5286496h.529672c.352853 0 .352853-.5286496 0-.5286496zm-5.0264695 2.9083397c.562376.45476 1.119932.862559 1.6567155 1.210259-.113792.20182-.1972695.4133-.2154875.64338h-2.881422c-.01824-.23028-.100477-.4426-.21497-.64441.536062-.34732 1.093804-.755579 1.655164-1.209229zm4.2037965.998389c.277361.21812.604467-.19787.327105-.41599l-.415986-.327119c-.06934-.0545-.141877-.0696-.207219-.05789-.19603.03522-.327907.310295-.119887.473887zm-8.3171605-.741079-.415987.327629c-.27724.21827.04986.63426.327106.41599l.415987-.32766c.207931-.163709.07616-.438769-.119887-.473869-.06535-.01169-.137908.003-.207219.05791zm-2.500573 1.069159c-.119053-.000529-.223724.0786-.255793.19327-.223026.81733-.76324694 1.435339-1.42159094 1.673799-.233503.0839-.233503.41477 0 .49868.658614.23756 1.19985994.85462 1.42365794 1.671729.072.25808.438069.25808.510036 0 .223025-.817329.763241-1.435349 1.421591-1.673799.233513-.0839.233513-.41476 0-.49868-.65861-.23759-1.199882-.854619-1.423658-1.671729-.0319-.114-.135881-.19285-.254243-.19327zm13.2273585 0c-.119053-.000529-.223725.0786-.255793.19327-.223027.81733-.763246 1.435339-1.421592 1.673799-.233502.0839-.233502.41477 0 .49868.658616.23756 1.19986.85462 1.423659 1.671729.072.25808.438069.25808.510036 0 .223024-.817329.763242-1.435349 1.421591-1.673799.233513-.0839.233513-.41476 0-.49868-.658608-.23755-1.199883-.854619-1.423658-1.671729-.0319-.114-.13588-.19285-.254243-.19327zm-13.2273585.972c.260865.53071.56321.868329 1.006121 1.143079-.45751.29272-.745997.63888-1.006121 1.13792-.234775-.47901-.596244-.90822-1.00405394-1.13585.45897594-.30193.74723994-.633989 1.00405394-1.145149zm13.2273585 0c.260865.53071.56321.868329 1.00612 1.143079-.45751.29272-.745996.63888-1.00612 1.13792-.234775-.47901-.596245-.90822-1.004054-1.13585.458975-.30193.74724-.633989 1.004054-1.145149zm-7.9363125.0842h2.645782v.529169h-2.645782zm0 1.058329h2.645782v.26562c0 .15115-.121179.26355-.264061.26355h-2.117659c-.142883 0-.264062-.1124-.264062-.26355zm.793735 1.05834h1.058312v.26561c0 .15116-.121178.26355-.264061.26355h-.53019c-.142882 0-.264061-.11239-.264061-.26355z" fill="#333" font-variant-ligatures="normal" font-variant-position="normal" font-variant-caps="normal" font-variant-numeric="normal" font-variant-alternates="normal" font-feature-settings="normal" text-indent="0" text-align="start" text-decoration-line="none" text-decoration-style="solid" text-decoration-color="#000000" text-transform="none" text-orientation="mixed" white-space="normal" shape-padding="0" isolation="auto" mix-blend-mode="normal" solid-color="#000000" solid-opacity="1" vector-effect="none"/></g></svg>